<mxfile host="app.diagrams.net" agent="Mozilla/5.0 (Windows NT 10.0; Win64; x64) AppleWebKit/537.36 (KHTML, like Gecko) Chrome/129.0.0.0 Safari/537.36" version="24.7.17" pages="2">
  <diagram id="_1gbnp5x9riskDkCixey" name="Conceptual Architecture">
    <mxGraphModel dx="2954" dy="1098" grid="1" gridSize="10" guides="1" tooltips="1" connect="1" arrows="1" fold="1" page="1" pageScale="1" pageWidth="1169" pageHeight="827" math="0" shadow="0">
      <root>
        <mxCell id="0" />
        <mxCell id="1" parent="0" />
        <mxCell id="GJtK7p2Xejx93kHWHDXP-1" value="&lt;b&gt;Ultron Cache Service&lt;/b&gt;" style="aspect=fixed;html=1;perimeter=none;align=center;shadow=0;dashed=0;image;fontSize=12;image=img/lib/mscae/Stream_Analytics.svg;labelBackgroundColor=#ffffff;fillColor=#4D9900;" vertex="1" parent="1">
          <mxGeometry x="310.0000000000001" y="660" width="65" height="51" as="geometry" />
        </mxCell>
        <mxCell id="GJtK7p2Xejx93kHWHDXP-2" value="&lt;b&gt;Redis Cache&lt;/b&gt;" style="outlineConnect=0;dashed=0;verticalLabelPosition=bottom;verticalAlign=top;align=center;html=1;shape=mxgraph.aws3.redis;fillColor=#2E73B8;gradientColor=none;spacingTop=1;" vertex="1" parent="1">
          <mxGeometry x="454.49999999999994" y="530" width="50" height="50" as="geometry" />
        </mxCell>
        <mxCell id="GJtK7p2Xejx93kHWHDXP-3" value="Ultron Server" style="shape=image;verticalLabelPosition=bottom;labelBackgroundColor=#ffffff;verticalAlign=top;aspect=fixed;imageAspect=0;image=data:image/svg+xml,PHN2ZyB4bWxuczpkYz0iaHR0cDovL3B1cmwub3JnL2RjL2VsZW1lbnRzLzEuMS8iIHhtbG5zOmNjPSJodHRwOi8vY3JlYXRpdmVjb21tb25zLm9yZy9ucyMiIHhtbG5zOnJkZj0iaHR0cDovL3d3dy53My5vcmcvMTk5OS8wMi8yMi1yZGYtc3ludGF4LW5zIyIgeG1sbnM6c3ZnPSJodHRwOi8vd3d3LnczLm9yZy8yMDAwL3N2ZyIgeG1sbnM9Imh0dHA6Ly93d3cudzMub3JnLzIwMDAvc3ZnIiB4bWxuczpzb2RpcG9kaT0iaHR0cDovL3NvZGlwb2RpLnNvdXJjZWZvcmdlLm5ldC9EVEQvc29kaXBvZGktMC5kdGQiIHhtbG5zOmlua3NjYXBlPSJodHRwOi8vd3d3Lmlua3NjYXBlLm9yZy9uYW1lc3BhY2VzL2lua3NjYXBlIiB2ZXJzaW9uPSIxLjEiIGlkPSJzdmcxMDQxMjEiIGlua3NjYXBlOnZlcnNpb249IjAuOTIuMyAoMjQwNTU0NiwgMjAxOC0wMy0xMSkiIHNvZGlwb2RpOmRvY25hbWU9IndlYmhvb2suc3ZnIiB4PSIwcHgiIHk9IjBweCIgdmlld0JveD0iMCAwIDk2Ljc2OTQyIDkwLjA3OTYzMiIgeG1sOnNwYWNlPSJwcmVzZXJ2ZSIgd2lkdGg9Ijk2Ljc2OTQxNyIgaGVpZ2h0PSI5MC4wNzk2MjgiPjxtZXRhZGF0YSBpZD0ibWV0YWRhdGE0NDI1Ij48cmRmOlJERj48Y2M6V29yayByZGY6YWJvdXQ9IiI+PGRjOmZvcm1hdD5pbWFnZS9zdmcreG1sPC9kYzpmb3JtYXQ+PGRjOnR5cGUgcmRmOnJlc291cmNlPSJodHRwOi8vcHVybC5vcmcvZGMvZGNtaXR5cGUvU3RpbGxJbWFnZSIvPjxkYzp0aXRsZS8+PC9jYzpXb3JrPjwvcmRmOlJERj48L21ldGFkYXRhPjxkZWZzIGlkPSJkZWZzNDQyMyI+JiN4YTsJJiN4YTsmI3hhOwkmI3hhOyYjeGE7CSYjeGE7JiN4YTsJCSYjeGE7CSYjeGE7CQkmI3hhOwkmI3hhOwkJJiN4YTsJPC9kZWZzPiYjeGE7PGZpbHRlciBpZD0iZmlsdGVyXzIiPiYjeGE7CTxmZUdhdXNzaWFuQmx1ciBpZD0iZmVHYXVzc2lhbkJsdXIxMDQwODYiIHN0ZERldmlhdGlvbj0iMiIvPiYjeGE7PC9maWx0ZXI+JiN4YTs8c29kaXBvZGk6bmFtZWR2aWV3IGJvcmRlcmNvbG9yPSIjNjY2NjY2IiBib3JkZXJvcGFjaXR5PSIxIiBmaXQtbWFyZ2luLWJvdHRvbT0iMCIgZml0LW1hcmdpbi1sZWZ0PSIwIiBmaXQtbWFyZ2luLXJpZ2h0PSIwIiBmaXQtbWFyZ2luLXRvcD0iMCIgZ3JpZHRvbGVyYW5jZT0iMTAiIGd1aWRldG9sZXJhbmNlPSIxMCIgaWQ9Im5hbWVkdmlldzEwNDEyMyIgaW5rc2NhcGU6Y3VycmVudC1sYXllcj0ic3ZnMTA0MTIxIiBpbmtzY2FwZTpjeD0iMjUuOTI0MzQzIiBpbmtzY2FwZTpjeT0iNDIuOTY1NzA3IiBpbmtzY2FwZTpwYWdlb3BhY2l0eT0iMCIgaW5rc2NhcGU6cGFnZXNoYWRvdz0iMiIgaW5rc2NhcGU6d2luZG93LWhlaWdodD0iMTAxNyIgaW5rc2NhcGU6d2luZG93LW1heGltaXplZD0iMSIgaW5rc2NhcGU6d2luZG93LXdpZHRoPSIxOTIwIiBpbmtzY2FwZTp3aW5kb3cteD0iLTgiIGlua3NjYXBlOndpbmRvdy15PSItOCIgaW5rc2NhcGU6em9vbT0iNC4zOTAwOTkzIiBvYmplY3R0b2xlcmFuY2U9IjEwIiBwYWdlY29sb3I9IiNmZmZmZmYiIHNob3dncmlkPSJmYWxzZSI+JiN4YTsJPC9zb2RpcG9kaTpuYW1lZHZpZXc+JiN4YTsmI3hhOzxwYXRoIGlkPSJwYXRoMTA0MDk5IiBpbmtzY2FwZTpjb25uZWN0b3ItY3VydmF0dXJlPSIwIiBzdHlsZT0iZmlsbDojYzczYTYzIiBkPSJtIDQ1LjMzODk2OCwzNy43NTU5NDcgYyAtNC4wMiw2Ljc3IC03Ljg4LDEzLjMyIC0xMS44MSwxOS44MiAtMS4wMSwxLjY3IC0xLjUyLDMuMDMgLTAuNzEsNS4xNiAyLjIzLDUuODYgLTAuOTEsMTEuNTcgLTYuODMsMTMuMTEgLTUuNTcsMS40NiAtMTEsLTIuMiAtMTIuMTEsLTguMTcgLTAuOTgsLTUuMjggMy4xMiwtMTAuNDYgOC45NSwtMTEuMjkgMC40OCwtMC4wNyAwLjk4LC0wLjA4IDEuOCwtMC4xNCBsIDguODYsLTE0Ljg2IGMgLTUuNTcsLTUuNTQgLTguODksLTEyLjAyIC04LjE1LC0yMC4wNCAwLjUyLC01LjY4IDIuNzUsLTEwLjU4IDYuODMsLTE0LjYwMDAwMDUgNy44MSwtNy42OTk5OTk5OSAxOS43MiwtOC45NCAyOC45MiwtMy4wNCA4Ljg0LDUuNjggMTIuODgsMTYuNzMwMDAwNSA5LjQzLDI2LjE5MDAwMDUgLTIuNiwtMC43IC01LjIyLC0xLjQxIC04LjA5LC0yLjE5IDEuMDgsLTUuMjYgMC4yOCwtOS45OSAtMy4yNywtMTQuMDMgLTIuMzQsLTIuNjggLTUuMzUsLTQuMDgwMDAwNSAtOC43NywtNC41OTAwMDA1IC02Ljg2LC0xLjA0IC0xMy41OSwzLjM3MDAwMDUgLTE1LjU5LDEwLjEwMDAwMDUgLTIuMjYsNy42MyAxLjE3LDEzLjg3IDEwLjU0LDE4LjU3IHoiLz4mI3hhOyYjeGE7PHBhdGggaWQ9InBhdGgxMDQxMDciIGlua3NjYXBlOmNvbm5lY3Rvci1jdXJ2YXR1cmU9IjAiIHN0eWxlPSJmaWxsOiM0YjRiNGIiIGQ9Im0gNTYuODQ4OTY4LDI5Ljc0NTk0NyBjIDIuODMsNS4wMSA1LjcxLDEwLjA5IDguNTcsMTUuMTIgMTQuNDIsLTQuNDcgMjUuMjksMy41MiAyOS4yLDEyLjA3IDQuNzEsMTAuMzIgMS40OSwyMi41NSAtNy43NywyOC45MyAtOS41LDYuNTMgLTIxLjUxLDUuNDIgLTI5LjkzLC0yLjk4IDIuMTUsLTEuOCA0LjMsLTMuNiA2LjYxLC01LjUzIDguMzEsNS4zOCAxNS41OCw1LjEzIDIwLjk4LC0xLjI0IDQuNiwtNS40NCA0LjUsLTEzLjU1IC0wLjI0LC0xOC44OCAtNS40NiwtNi4xNCAtMTIuNzgsLTYuMzMgLTIxLjYzLC0wLjQzIC0zLjY3LC02LjUyIC03LjQxLC0xMi45OCAtMTAuOTYsLTE5LjU0IC0xLjIsLTIuMjEgLTIuNTMsLTMuNDkgLTUuMjMsLTMuOTYgLTQuNTEsLTAuNzggLTcuNDIsLTQuNjYgLTcuNiwtOSAtMC4xNywtNC4yOSAyLjM2LC04LjE3IDYuMzEsLTkuNjggMy45MiwtMS41IDguNTEsLTAuMjkgMTEuMTUsMy4wNCAyLjE1LDIuNzIgMi44Myw1Ljc4IDEuNyw5LjE0IC0wLjMxLDAuOTMgLTAuNzIsMS44NCAtMS4xNiwyLjk0IHoiLz4mI3hhOyYjeGE7PHBhdGggaWQ9InBhdGgxMDQxMTUiIGlua3NjYXBlOmNvbm5lY3Rvci1jdXJ2YXR1cmU9IjAiIHN0eWxlPSJmaWxsOiM0YTRhNGEiIGQ9Im0gNjMuNjE4OTY4LDcwLjY0NTk0NyBoIC0xNy4zNiBjIC0xLjY3LDYuODUgLTUuMjYsMTIuMzcgLTExLjQ1LDE1Ljg5IC00LjgyLDIuNzMgLTEwLjAxLDMuNjUgLTE1LjUzLDIuNzYgLTEwLjE3MDAwMDMsLTEuNjQgLTE4LjQ5MDAwMDI4LC0xMC43OSAtMTkuMjIwMDAwMjgsLTIxLjEgLTAuODMsLTExLjY4IDcuMTk5OTk5OTgsLTIyLjA2IDE3LjkwMDAwMDI4LC0yNC4zOSAwLjc0LDIuNjggMS40OCw1LjM5IDIuMjIsOC4wNiAtOS44Miw1LjAxIC0xMy4yMTAwMDAzLDExLjMyIC0xMC40NzAwMDAzLDE5LjIxIDIuNDIwMDAwMyw2Ljk1IDkuMjkwMDAwMywxMC43NSAxNi43NTAwMDAzLDkuMjggNy42MiwtMS41IDExLjQ2LC03LjgzIDEwLjk5LC0xNy45OSA3LjIyLDAgMTQuNDUsLTAuMDggMjEuNjcsMC4wMyAyLjgyLDAuMDUgNSwtMC4yNCA3LjEzLC0yLjczIDMuNDksLTQuMDkgOS45MywtMy43MiAxMy43LDAuMTQgMy44NSwzLjk1IDMuNjYsMTAuMyAtMC40MSwxNC4wOSAtMy45MywzLjY1IC0xMC4xNCwzLjQ1IC0xMy44MiwtMC40OCAtMC43NSwtMC44MSAtMS4zNSwtMS43NyAtMi4xLC0yLjc3IHoiLz4mI3hhOzwvc3ZnPg==;fontStyle=1" vertex="1" parent="1">
          <mxGeometry x="628.06" y="530" width="53.89" height="50" as="geometry" />
        </mxCell>
        <object placeholders="1" c4Name="" c4Type="ContainerScopeBoundary" c4Application="ultron-operator" label="&lt;font style=&quot;font-size: 16px&quot;&gt;&lt;b&gt;&lt;div style=&quot;text-align: left&quot;&gt;%c4Application%&lt;/div&gt;&lt;/b&gt;&lt;/font&gt;" id="GJtK7p2Xejx93kHWHDXP-4">
          <mxCell style="rounded=1;fontSize=11;whiteSpace=wrap;html=1;dashed=1;arcSize=20;fillColor=none;strokeColor=#666666;fontColor=#333333;labelBackgroundColor=none;align=left;verticalAlign=bottom;labelBorderColor=none;spacingTop=0;spacing=10;dashPattern=8 4;metaEdit=1;rotatable=0;perimeter=rectanglePerimeter;noLabel=0;labelPadding=0;allowArrows=0;connectable=0;expand=0;recursiveResize=0;editable=1;pointerEvents=0;absoluteArcSize=1;points=[[0.25,0,0],[0.5,0,0],[0.75,0,0],[1,0.25,0],[1,0.5,0],[1,0.75,0],[0.75,1,0],[0.5,1,0],[0.25,1,0],[0,0.75,0],[0,0.5,0],[0,0.25,0]];spacingLeft=365;" vertex="1" parent="1">
            <mxGeometry x="230" y="320" width="850" height="470" as="geometry" />
          </mxCell>
        </object>
        <mxCell id="GJtK7p2Xejx93kHWHDXP-5" value="&lt;b&gt;Azure API(s)&lt;/b&gt;" style="image;aspect=fixed;html=1;points=[];align=center;fontSize=12;image=img/lib/azure2/web/API_Center.svg;" vertex="1" parent="1">
          <mxGeometry x="117" y="360" width="58" height="58" as="geometry" />
        </mxCell>
        <object placeholders="1" c4Name="" c4Type="ContainerScopeBoundary" c4Application="data sources" label="&lt;font style=&quot;font-size: 16px&quot;&gt;&lt;b&gt;&lt;div style=&quot;text-align: left&quot;&gt;%c4Application%&lt;/div&gt;&lt;/b&gt;&lt;/font&gt;" id="GJtK7p2Xejx93kHWHDXP-6">
          <mxCell style="rounded=1;fontSize=11;whiteSpace=wrap;html=1;dashed=1;arcSize=20;fillColor=none;strokeColor=#666666;fontColor=#333333;labelBackgroundColor=none;align=left;verticalAlign=bottom;labelBorderColor=none;spacingTop=0;spacing=10;dashPattern=8 4;metaEdit=1;rotatable=0;perimeter=rectanglePerimeter;noLabel=0;labelPadding=0;allowArrows=0;connectable=0;expand=0;recursiveResize=0;editable=1;pointerEvents=0;absoluteArcSize=1;points=[[0.25,0,0],[0.5,0,0],[0.75,0,0],[1,0.25,0],[1,0.5,0],[1,0.75,0],[0.75,1,0],[0.5,1,0],[0.25,1,0],[0,0.75,0],[0,0.5,0],[0,0.25,0]];spacingLeft=5;" vertex="1" parent="1">
            <mxGeometry x="81" y="320" width="130" height="470" as="geometry" />
          </mxCell>
        </object>
        <mxCell id="GJtK7p2Xejx93kHWHDXP-7" value="&lt;b&gt;AWS API(s)&lt;/b&gt;" style="image;aspect=fixed;html=1;points=[];align=center;fontSize=12;image=img/lib/azure2/web/API_Center.svg;" vertex="1" parent="1">
          <mxGeometry x="117" y="460" width="58" height="58" as="geometry" />
        </mxCell>
        <mxCell id="GJtK7p2Xejx93kHWHDXP-8" value="&lt;span&gt;GCP API(s)&lt;/span&gt;" style="image;aspect=fixed;html=1;points=[];align=center;fontSize=12;image=img/lib/azure2/web/API_Center.svg;fontStyle=1" vertex="1" parent="1">
          <mxGeometry x="117" y="562" width="58" height="58" as="geometry" />
        </mxCell>
        <mxCell id="GJtK7p2Xejx93kHWHDXP-9" value="&lt;span&gt;Emma API&lt;/span&gt;" style="image;aspect=fixed;html=1;points=[];align=center;fontSize=12;image=img/lib/azure2/web/API_Center.svg;fontStyle=1" vertex="1" parent="1">
          <mxGeometry x="117" y="668" width="58" height="58" as="geometry" />
        </mxCell>
        <mxCell id="GJtK7p2Xejx93kHWHDXP-10" value="" style="group" vertex="1" connectable="0" parent="1">
          <mxGeometry x="80" y="41" width="1000" height="290" as="geometry" />
        </mxCell>
        <mxCell id="GJtK7p2Xejx93kHWHDXP-11" value="" style="group" vertex="1" connectable="0" parent="GJtK7p2Xejx93kHWHDXP-10">
          <mxGeometry width="1000" height="260" as="geometry" />
        </mxCell>
        <mxCell id="GJtK7p2Xejx93kHWHDXP-12" style="edgeStyle=elbowEdgeStyle;rounded=0;orthogonalLoop=1;jettySize=auto;elbow=vertical;html=1;strokeColor=#808080;entryX=-0.032;entryY=0.493;entryDx=0;entryDy=0;entryPerimeter=0;exitX=1;exitY=0.5;exitDx=0;exitDy=0;exitPerimeter=0;" edge="1" parent="GJtK7p2Xejx93kHWHDXP-11" source="GJtK7p2Xejx93kHWHDXP-15" target="GJtK7p2Xejx93kHWHDXP-14">
          <mxGeometry relative="1" as="geometry">
            <mxPoint x="109.29999999999995" y="63.90000000000009" as="sourcePoint" />
            <mxPoint x="928.5" y="-114.5" as="targetPoint" />
          </mxGeometry>
        </mxCell>
        <mxCell id="GJtK7p2Xejx93kHWHDXP-13" style="edgeStyle=elbowEdgeStyle;rounded=0;orthogonalLoop=1;jettySize=auto;html=1;strokeColor=#808080;entryX=-0.038;entryY=0.5;entryDx=0;entryDy=0;entryPerimeter=0;exitX=1.031;exitY=0.506;exitDx=0;exitDy=0;exitPerimeter=0;elbow=vertical;" edge="1" parent="GJtK7p2Xejx93kHWHDXP-11" source="GJtK7p2Xejx93kHWHDXP-14" target="GJtK7p2Xejx93kHWHDXP-19">
          <mxGeometry relative="1" as="geometry" />
        </mxCell>
        <mxCell id="GJtK7p2Xejx93kHWHDXP-14" value="&lt;b&gt;Kafka Broker&lt;/b&gt;" style="aspect=fixed;html=1;perimeter=none;align=center;shadow=0;dashed=0;image;fontSize=12;image=img/lib/mscae/Event_Hubs.svg;labelBackgroundColor=#ffffff;fillColor=#4D9900;" vertex="1" parent="GJtK7p2Xejx93kHWHDXP-11">
          <mxGeometry x="288.5" y="38.99999999999994" width="48.5" height="50" as="geometry" />
        </mxCell>
        <mxCell id="GJtK7p2Xejx93kHWHDXP-15" value="&lt;b&gt;OTLP Kafka Receiver&lt;/b&gt;" style="verticalLabelPosition=bottom;sketch=0;html=1;fillColor=#A153A0;strokeColor=#ffffff;verticalAlign=top;align=center;points=[[0,0.5,0],[0.125,0.25,0],[0.25,0,0],[0.5,0,0],[0.75,0,0],[0.875,0.25,0],[1,0.5,0],[0.875,0.75,0],[0.75,1,0],[0.5,1,0],[0.125,0.75,0]];pointerEvents=1;shape=mxgraph.cisco_safe.compositeIcon;bgIcon=mxgraph.cisco_safe.design.blank_device;resIcon=mxgraph.cisco_safe.design.log_collector_2;spacingTop=-75;" vertex="1" parent="GJtK7p2Xejx93kHWHDXP-11">
          <mxGeometry x="59.5" y="39" width="55.5" height="50" as="geometry" />
        </mxCell>
        <mxCell id="GJtK7p2Xejx93kHWHDXP-16" value="&lt;b&gt;Ultron&amp;nbsp;&lt;/b&gt;&lt;b&gt;Model Database&lt;/b&gt;" style="aspect=fixed;html=1;perimeter=none;align=center;shadow=0;dashed=0;image;fontSize=12;image=img/lib/mscae/SQL_Database_generic.svg;labelBackgroundColor=#ffffff;fillColor=#4D9900;spacingTop=-75;spacingBottom=0;" vertex="1" parent="GJtK7p2Xejx93kHWHDXP-11">
          <mxGeometry x="682.2499999999998" y="40" width="37.5" height="50" as="geometry" />
        </mxCell>
        <object placeholders="1" c4Name="" c4Type="ContainerScopeBoundary" c4Application="ultron-chronicler" label="&lt;font style=&quot;font-size: 16px&quot;&gt;&lt;b&gt;&lt;div style=&quot;text-align: left&quot;&gt;%c4Application%&lt;/div&gt;&lt;/b&gt;&lt;/font&gt;" id="GJtK7p2Xejx93kHWHDXP-17">
          <mxCell style="rounded=1;fontSize=11;whiteSpace=wrap;html=1;dashed=1;arcSize=20;fillColor=none;strokeColor=#666666;fontColor=#333333;labelBackgroundColor=none;align=left;verticalAlign=bottom;labelBorderColor=none;spacingTop=0;spacing=10;dashPattern=8 4;metaEdit=1;rotatable=0;perimeter=rectanglePerimeter;noLabel=0;labelPadding=0;allowArrows=0;connectable=0;expand=0;recursiveResize=0;editable=1;pointerEvents=0;absoluteArcSize=1;points=[[0.25,0,0],[0.5,0,0],[0.75,0,0],[1,0.25,0],[1,0.5,0],[1,0.75,0],[0.75,1,0],[0.5,1,0],[0.25,1,0],[0,0.75,0],[0,0.5,0],[0,0.25,0]];spacingLeft=405;" vertex="1" parent="GJtK7p2Xejx93kHWHDXP-11">
            <mxGeometry width="1000" height="260" as="geometry" />
          </mxCell>
        </object>
        <mxCell id="GJtK7p2Xejx93kHWHDXP-18" value="" style="group" vertex="1" connectable="0" parent="GJtK7p2Xejx93kHWHDXP-11">
          <mxGeometry x="494.0000000000001" y="38.5" width="184.1124999999996" height="54" as="geometry" />
        </mxCell>
        <mxCell id="GJtK7p2Xejx93kHWHDXP-19" value="&lt;b&gt;Ultron Chronicler Service&lt;/b&gt;" style="aspect=fixed;html=1;perimeter=none;align=center;shadow=0;dashed=0;image;fontSize=12;image=img/lib/mscae/Stream_Analytics.svg;labelBackgroundColor=#ffffff;fillColor=#4D9900;" vertex="1" parent="GJtK7p2Xejx93kHWHDXP-18">
          <mxGeometry width="65" height="51" as="geometry" />
        </mxCell>
        <mxCell id="GJtK7p2Xejx93kHWHDXP-20" style="edgeStyle=elbowEdgeStyle;rounded=0;orthogonalLoop=1;jettySize=auto;html=1;strokeColor=#808080;entryX=-0.057;entryY=0.523;entryDx=0;entryDy=0;entryPerimeter=0;elbow=vertical;" edge="1" parent="GJtK7p2Xejx93kHWHDXP-18">
          <mxGeometry relative="1" as="geometry">
            <mxPoint x="65.99999999999989" y="24.5" as="sourcePoint" />
            <mxPoint x="184.1124999999996" y="24.649999999999977" as="targetPoint" />
          </mxGeometry>
        </mxCell>
        <mxCell id="GJtK7p2Xejx93kHWHDXP-21" value="" style="group" vertex="1" connectable="0" parent="GJtK7p2Xejx93kHWHDXP-11">
          <mxGeometry x="724" y="22.5" width="195" height="68" as="geometry" />
        </mxCell>
        <mxCell id="GJtK7p2Xejx93kHWHDXP-22" style="edgeStyle=elbowEdgeStyle;rounded=0;orthogonalLoop=1;jettySize=auto;html=1;strokeColor=#808080;" edge="1" parent="GJtK7p2Xejx93kHWHDXP-21">
          <mxGeometry relative="1" as="geometry">
            <Array as="points">
              <mxPoint x="103" y="5.5" />
            </Array>
            <mxPoint x="119" y="40.5" as="sourcePoint" />
            <mxPoint y="40.5" as="targetPoint" />
          </mxGeometry>
        </mxCell>
        <mxCell id="GJtK7p2Xejx93kHWHDXP-23" value="" style="group" vertex="1" connectable="0" parent="GJtK7p2Xejx93kHWHDXP-21">
          <mxGeometry x="116" width="79" height="68" as="geometry" />
        </mxCell>
        <mxCell id="GJtK7p2Xejx93kHWHDXP-24" value="&lt;b&gt;ML.NET&lt;/b&gt;" style="aspect=fixed;html=1;perimeter=none;align=left;shadow=0;dashed=0;image;fontSize=12;image=img/lib/mscae/Machine_Learning.svg;labelBackgroundColor=#ffffff;fillColor=#4D9900;labelPosition=right;verticalLabelPosition=bottom;verticalAlign=top;" vertex="1" parent="GJtK7p2Xejx93kHWHDXP-23">
          <mxGeometry x="50" width="29" height="30" as="geometry" />
        </mxCell>
        <mxCell id="GJtK7p2Xejx93kHWHDXP-25" value="&lt;b&gt;Ultron&amp;nbsp;&lt;/b&gt;&lt;b&gt;Scholar Service&lt;/b&gt;" style="aspect=fixed;html=1;perimeter=none;align=center;shadow=0;dashed=0;image;fontSize=12;image=img/lib/mscae/Stream_Analytics.svg;labelBackgroundColor=#ffffff;fillColor=#4D9900;" vertex="1" parent="GJtK7p2Xejx93kHWHDXP-23">
          <mxGeometry y="17" width="65" height="51" as="geometry" />
        </mxCell>
        <mxCell id="GJtK7p2Xejx93kHWHDXP-26" value="" style="group" vertex="1" connectable="0" parent="GJtK7p2Xejx93kHWHDXP-11">
          <mxGeometry x="672" y="95" width="58" height="123" as="geometry" />
        </mxCell>
        <mxCell id="GJtK7p2Xejx93kHWHDXP-27" value="&lt;b&gt;Ultron&amp;nbsp;&lt;/b&gt;&lt;b&gt;API&lt;/b&gt;" style="image;aspect=fixed;html=1;points=[];align=center;fontSize=12;image=img/lib/azure2/web/API_Center.svg;" vertex="1" parent="GJtK7p2Xejx93kHWHDXP-26">
          <mxGeometry y="65" width="58" height="58" as="geometry" />
        </mxCell>
        <mxCell id="GJtK7p2Xejx93kHWHDXP-28" style="edgeStyle=elbowEdgeStyle;rounded=0;orthogonalLoop=1;jettySize=auto;html=1;strokeColor=#808080;exitX=0.479;exitY=0.006;exitDx=0;exitDy=0;exitPerimeter=0;elbow=vertical;" edge="1" parent="GJtK7p2Xejx93kHWHDXP-26">
          <mxGeometry relative="1" as="geometry">
            <mxPoint x="27.782000000000153" y="78" as="sourcePoint" />
            <mxPoint x="28" as="targetPoint" />
          </mxGeometry>
        </mxCell>
        <mxCell id="GJtK7p2Xejx93kHWHDXP-29" value="" style="group" vertex="1" connectable="0" parent="GJtK7p2Xejx93kHWHDXP-11">
          <mxGeometry x="60" y="95" width="58" height="123" as="geometry" />
        </mxCell>
        <mxCell id="GJtK7p2Xejx93kHWHDXP-30" style="edgeStyle=elbowEdgeStyle;rounded=0;orthogonalLoop=1;jettySize=auto;html=1;strokeColor=#808080;elbow=vertical;jumpSize=6;endSize=6;startSize=6;sourcePerimeterSpacing=0;" edge="1" parent="GJtK7p2Xejx93kHWHDXP-29">
          <mxGeometry relative="1" as="geometry">
            <mxPoint x="28" y="65" as="sourcePoint" />
            <mxPoint x="28" y="-5" as="targetPoint" />
          </mxGeometry>
        </mxCell>
        <mxCell id="GJtK7p2Xejx93kHWHDXP-31" value="&lt;b&gt;OTLP HTTP Receiver&lt;/b&gt;" style="verticalLabelPosition=bottom;sketch=0;html=1;fillColor=#A153A0;strokeColor=#ffffff;verticalAlign=top;align=center;points=[[0,0.5,0],[0.125,0.25,0],[0.25,0,0],[0.5,0,0],[0.75,0,0],[0.875,0.25,0],[1,0.5,0],[0.875,0.75,0],[0.75,1,0],[0.5,1,0],[0.125,0.75,0]];pointerEvents=1;shape=mxgraph.cisco_safe.compositeIcon;bgIcon=mxgraph.cisco_safe.design.blank_device;resIcon=mxgraph.cisco_safe.design.log_collector_2;spacingTop=0;" vertex="1" parent="GJtK7p2Xejx93kHWHDXP-29">
          <mxGeometry x="-2.6645352591003757e-15" y="64" width="55.5" height="50" as="geometry" />
        </mxCell>
        <mxCell id="GJtK7p2Xejx93kHWHDXP-32" value="&lt;b&gt;Mutating WebHook&lt;/b&gt;" style="aspect=fixed;sketch=0;html=1;dashed=0;whitespace=wrap;verticalLabelPosition=bottom;verticalAlign=top;fillColor=#2875E2;strokeColor=#ffffff;points=[[0.005,0.63,0],[0.1,0.2,0],[0.9,0.2,0],[0.5,0,0],[0.995,0.63,0],[0.72,0.99,0],[0.5,1,0],[0.28,0.99,0]];shape=mxgraph.kubernetes.icon2;prIcon=api" vertex="1" parent="1">
          <mxGeometry x="770" y="396" width="66.65" height="64" as="geometry" />
        </mxCell>
        <mxCell id="GJtK7p2Xejx93kHWHDXP-33" value="&lt;b&gt;Validating WebHook&lt;/b&gt;" style="aspect=fixed;sketch=0;html=1;dashed=0;whitespace=wrap;verticalLabelPosition=bottom;verticalAlign=top;fillColor=#2875E2;strokeColor=#ffffff;points=[[0.005,0.63,0],[0.1,0.2,0],[0.9,0.2,0],[0.5,0,0],[0.995,0.63,0],[0.72,0.99,0],[0.5,1,0],[0.28,0.99,0]];shape=mxgraph.kubernetes.icon2;prIcon=api" vertex="1" parent="1">
          <mxGeometry x="772.08" y="651" width="62.49" height="60" as="geometry" />
        </mxCell>
        <mxCell id="GJtK7p2Xejx93kHWHDXP-34" value="&lt;b&gt;k8s AdmissionReview&lt;/b&gt;" style="aspect=fixed;sketch=0;html=1;dashed=0;whitespace=wrap;verticalLabelPosition=bottom;verticalAlign=top;fillColor=#2875E2;strokeColor=#ffffff;points=[[0.005,0.63,0],[0.1,0.2,0],[0.9,0.2,0],[0.5,0,0],[0.995,0.63,0],[0.72,0.99,0],[0.5,1,0],[0.28,0.99,0]];shape=mxgraph.kubernetes.icon2;kubernetesLabel=1;prIcon=pod" vertex="1" parent="1">
          <mxGeometry x="939.0699999999999" y="525" width="62.5" height="60" as="geometry" />
        </mxCell>
        <mxCell id="GJtK7p2Xejx93kHWHDXP-35" value="&lt;b&gt;Ultron Observer Service&lt;/b&gt;" style="aspect=fixed;html=1;perimeter=none;align=center;shadow=0;dashed=0;image;fontSize=12;image=img/lib/mscae/Stream_Analytics.svg;labelBackgroundColor=#ffffff;fillColor=#4D9900;" vertex="1" parent="1">
          <mxGeometry x="310.0000000000001" y="402.5" width="65" height="51" as="geometry" />
        </mxCell>
      </root>
    </mxGraphModel>
  </diagram>
  <diagram name="Sequence Diagram" id="13e1069c-82ec-6db2-03f1-153e76fe0fe0">
    <mxGraphModel dx="2954" dy="1098" grid="1" gridSize="10" guides="1" tooltips="1" connect="1" arrows="1" fold="1" page="1" pageScale="1" pageWidth="1100" pageHeight="850" background="none" math="0" shadow="0">
      <root>
        <mxCell id="0" />
        <mxCell id="1" parent="0" />
        <mxCell id="LFfvi1dinfQVA_8fY7Rs-18" value="evaluatePodSpec" style="html=1;verticalAlign=bottom;endArrow=block;labelBackgroundColor=none;fontFamily=Verdana;fontSize=12;elbow=vertical;edgeStyle=orthogonalEdgeStyle;curved=1;" parent="1" edge="1">
          <mxGeometry relative="1" as="geometry">
            <mxPoint x="619.9985714285714" y="459" as="sourcePoint" />
            <mxPoint x="625.0699999999999" y="497" as="targetPoint" />
            <Array as="points">
              <mxPoint x="694.07" y="459" />
              <mxPoint x="694.07" y="497" />
            </Array>
          </mxGeometry>
        </mxCell>
        <mxCell id="7baba1c4bc27f4b0-2" value="MutatingWH" style="shape=umlLifeline;perimeter=lifelinePerimeter;whiteSpace=wrap;html=1;container=1;collapsible=0;recursiveResize=0;outlineConnect=0;rounded=1;shadow=0;comic=0;labelBackgroundColor=none;strokeWidth=1;fontFamily=Verdana;fontSize=12;align=center;" parent="1" vertex="1">
          <mxGeometry x="151" y="154" width="100" height="580" as="geometry" />
        </mxCell>
        <mxCell id="7baba1c4bc27f4b0-10" value="" style="html=1;points=[];perimeter=orthogonalPerimeter;rounded=0;shadow=0;comic=0;labelBackgroundColor=none;strokeWidth=1;fontFamily=Verdana;fontSize=12;align=center;" parent="7baba1c4bc27f4b0-2" vertex="1">
          <mxGeometry x="45" y="100" width="10" height="160" as="geometry" />
        </mxCell>
        <mxCell id="LFfvi1dinfQVA_8fY7Rs-12" value="apply" style="html=1;verticalAlign=bottom;endArrow=block;curved=0;rounded=0;entryX=0.133;entryY=0.003;entryDx=0;entryDy=0;entryPerimeter=0;" parent="7baba1c4bc27f4b0-2" edge="1">
          <mxGeometry width="80" relative="1" as="geometry">
            <mxPoint x="55" y="259" as="sourcePoint" />
            <mxPoint x="185.33000000000015" y="259.37200000000007" as="targetPoint" />
          </mxGeometry>
        </mxCell>
        <mxCell id="7baba1c4bc27f4b0-3" value="ValidatingWH" style="shape=umlLifeline;perimeter=lifelinePerimeter;whiteSpace=wrap;html=1;container=1;collapsible=0;recursiveResize=0;outlineConnect=0;rounded=1;shadow=0;comic=0;labelBackgroundColor=none;strokeWidth=1;fontFamily=Verdana;fontSize=12;align=center;" parent="1" vertex="1">
          <mxGeometry x="290" y="154" width="100" height="580" as="geometry" />
        </mxCell>
        <mxCell id="LFfvi1dinfQVA_8fY7Rs-11" value="" style="html=1;points=[];perimeter=orthogonalPerimeter;rounded=0;shadow=0;comic=0;labelBackgroundColor=none;strokeWidth=1;fontFamily=Verdana;fontSize=12;align=center;" parent="7baba1c4bc27f4b0-3" vertex="1">
          <mxGeometry x="45" y="259" width="10" height="261" as="geometry" />
        </mxCell>
        <mxCell id="LFfvi1dinfQVA_8fY7Rs-29" value="return" style="html=1;verticalAlign=bottom;endArrow=open;dashed=1;endSize=8;curved=0;rounded=0;" parent="7baba1c4bc27f4b0-3" source="7baba1c4bc27f4b0-7" edge="1">
          <mxGeometry relative="1" as="geometry">
            <mxPoint x="164.50000000000045" y="498" as="sourcePoint" />
            <mxPoint x="55" y="498" as="targetPoint" />
          </mxGeometry>
        </mxCell>
        <mxCell id="LFfvi1dinfQVA_8fY7Rs-30" value="return" style="html=1;verticalAlign=bottom;endArrow=open;dashed=1;endSize=8;curved=0;rounded=0;" parent="7baba1c4bc27f4b0-3" edge="1">
          <mxGeometry relative="1" as="geometry">
            <mxPoint x="44" y="520" as="sourcePoint" />
            <mxPoint x="-225.33333333333348" y="520" as="targetPoint" />
          </mxGeometry>
        </mxCell>
        <mxCell id="7baba1c4bc27f4b0-4" value="WebHookServer" style="shape=umlLifeline;perimeter=lifelinePerimeter;whiteSpace=wrap;html=1;container=1;collapsible=0;recursiveResize=0;outlineConnect=0;rounded=1;shadow=0;comic=0;labelBackgroundColor=none;strokeWidth=1;fontFamily=Verdana;fontSize=12;align=center;" parent="1" vertex="1">
          <mxGeometry x="430" y="154" width="100" height="580" as="geometry" />
        </mxCell>
        <mxCell id="LFfvi1dinfQVA_8fY7Rs-5" value="/patch" style="html=1;verticalAlign=bottom;endArrow=block;curved=0;rounded=0;" parent="7baba1c4bc27f4b0-4" source="7baba1c4bc27f4b0-4" edge="1">
          <mxGeometry width="80" relative="1" as="geometry">
            <mxPoint x="62" y="136" as="sourcePoint" />
            <mxPoint x="185.50000000000023" y="135.30999999999995" as="targetPoint" />
          </mxGeometry>
        </mxCell>
        <mxCell id="LFfvi1dinfQVA_8fY7Rs-14" value="" style="html=1;points=[];perimeter=orthogonalPerimeter;rounded=0;shadow=0;comic=0;labelBackgroundColor=none;strokeWidth=1;fontFamily=Verdana;fontSize=12;align=center;" parent="7baba1c4bc27f4b0-4" vertex="1">
          <mxGeometry x="45" y="271" width="10" height="189" as="geometry" />
        </mxCell>
        <mxCell id="LFfvi1dinfQVA_8fY7Rs-22" value="return" style="html=1;verticalAlign=bottom;endArrow=open;dashed=1;endSize=8;curved=0;rounded=0;" parent="7baba1c4bc27f4b0-4" edge="1">
          <mxGeometry relative="1" as="geometry">
            <mxPoint x="182.53999999999996" y="434" as="sourcePoint" />
            <mxPoint x="55.468571428571295" y="434.28" as="targetPoint" />
          </mxGeometry>
        </mxCell>
        <mxCell id="LFfvi1dinfQVA_8fY7Rs-23" value="return" style="html=1;verticalAlign=bottom;endArrow=open;dashed=1;endSize=8;curved=0;rounded=0;" parent="7baba1c4bc27f4b0-4" edge="1">
          <mxGeometry relative="1" as="geometry">
            <mxPoint x="42" y="456" as="sourcePoint" />
            <mxPoint x="-85.07142857142867" y="456.28" as="targetPoint" />
          </mxGeometry>
        </mxCell>
        <mxCell id="LFfvi1dinfQVA_8fY7Rs-28" value="apply" style="html=1;verticalAlign=bottom;endArrow=block;curved=0;rounded=0;" parent="7baba1c4bc27f4b0-4" target="7baba1c4bc27f4b0-7" edge="1">
          <mxGeometry width="80" relative="1" as="geometry">
            <mxPoint x="-85.33000000000004" y="476" as="sourcePoint" />
            <mxPoint x="45.000000000000114" y="476.37200000000007" as="targetPoint" />
          </mxGeometry>
        </mxCell>
        <mxCell id="7baba1c4bc27f4b0-5" value="ComputeSvc" style="shape=umlLifeline;perimeter=lifelinePerimeter;whiteSpace=wrap;html=1;container=1;collapsible=0;recursiveResize=0;outlineConnect=0;rounded=1;shadow=0;comic=0;labelBackgroundColor=none;strokeWidth=1;fontFamily=Verdana;fontSize=12;align=center;" parent="1" vertex="1">
          <mxGeometry x="570" y="154" width="100" height="580" as="geometry" />
        </mxCell>
        <mxCell id="LFfvi1dinfQVA_8fY7Rs-6" value="computePodSpec" style="html=1;verticalAlign=bottom;endArrow=block;labelBackgroundColor=none;fontFamily=Verdana;fontSize=12;elbow=vertical;edgeStyle=orthogonalEdgeStyle;curved=1;" parent="7baba1c4bc27f4b0-5" edge="1">
          <mxGeometry relative="1" as="geometry">
            <mxPoint x="49.92857142857133" y="155" as="sourcePoint" />
            <mxPoint x="54.999999999999886" y="193" as="targetPoint" />
            <Array as="points">
              <mxPoint x="124" y="155" />
              <mxPoint x="124" y="193" />
            </Array>
          </mxGeometry>
        </mxCell>
        <mxCell id="7baba1c4bc27f4b0-19" value="" style="html=1;points=[];perimeter=orthogonalPerimeter;rounded=0;shadow=0;comic=0;labelBackgroundColor=none;strokeWidth=1;fontFamily=Verdana;fontSize=12;align=center;" parent="7baba1c4bc27f4b0-5" vertex="1">
          <mxGeometry x="45" y="80" width="10" height="30" as="geometry" />
        </mxCell>
        <mxCell id="LFfvi1dinfQVA_8fY7Rs-13" value="" style="html=1;points=[];perimeter=orthogonalPerimeter;rounded=0;shadow=0;comic=0;labelBackgroundColor=none;strokeWidth=1;fontFamily=Verdana;fontSize=12;align=center;" parent="7baba1c4bc27f4b0-5" vertex="1">
          <mxGeometry x="45" y="134" width="10" height="84" as="geometry" />
        </mxCell>
        <mxCell id="LFfvi1dinfQVA_8fY7Rs-16" value="" style="html=1;points=[];perimeter=orthogonalPerimeter;rounded=0;shadow=0;comic=0;labelBackgroundColor=none;strokeWidth=1;fontFamily=Verdana;fontSize=12;align=center;" parent="7baba1c4bc27f4b0-5" vertex="1">
          <mxGeometry x="45" y="286" width="10" height="154" as="geometry" />
        </mxCell>
        <mxCell id="LFfvi1dinfQVA_8fY7Rs-17" value="/confirm" style="html=1;verticalAlign=bottom;endArrow=block;labelBackgroundColor=none;fontFamily=Verdana;fontSize=12;edgeStyle=elbowEdgeStyle;elbow=vertical;entryX=0.05;entryY=0.009;entryDx=0;entryDy=0;entryPerimeter=0;" parent="7baba1c4bc27f4b0-5" edge="1">
          <mxGeometry relative="1" as="geometry">
            <mxPoint x="-84.44999999999999" y="286.30952380952374" as="sourcePoint" />
            <mxPoint x="45" y="286" as="targetPoint" />
          </mxGeometry>
        </mxCell>
        <mxCell id="7baba1c4bc27f4b0-6" value="ObserveSvc" style="shape=umlLifeline;perimeter=lifelinePerimeter;whiteSpace=wrap;html=1;container=1;collapsible=0;recursiveResize=0;outlineConnect=0;rounded=1;shadow=0;comic=0;labelBackgroundColor=none;strokeWidth=1;fontFamily=Verdana;fontSize=12;align=center;" parent="1" vertex="1">
          <mxGeometry x="710" y="154" width="100" height="580" as="geometry" />
        </mxCell>
        <mxCell id="LFfvi1dinfQVA_8fY7Rs-8" value="/getComputeConfigs" style="html=1;verticalAlign=bottom;endArrow=block;curved=0;rounded=0;exitX=0.895;exitY=0.031;exitDx=0;exitDy=0;exitPerimeter=0;" parent="7baba1c4bc27f4b0-6" edge="1">
          <mxGeometry width="80" relative="1" as="geometry">
            <mxPoint x="-85.04999999999995" y="85.83600000000001" as="sourcePoint" />
            <mxPoint x="325.5000000000002" y="86.51999999999998" as="targetPoint" />
          </mxGeometry>
        </mxCell>
        <mxCell id="LFfvi1dinfQVA_8fY7Rs-19" value="" style="html=1;points=[];perimeter=orthogonalPerimeter;rounded=0;shadow=0;comic=0;labelBackgroundColor=none;strokeWidth=1;fontFamily=Verdana;fontSize=12;align=center;" parent="7baba1c4bc27f4b0-6" vertex="1">
          <mxGeometry x="45" y="365" width="10" height="55" as="geometry" />
        </mxCell>
        <mxCell id="LFfvi1dinfQVA_8fY7Rs-20" value="/observe" style="html=1;verticalAlign=bottom;endArrow=block;labelBackgroundColor=none;fontFamily=Verdana;fontSize=12;edgeStyle=elbowEdgeStyle;elbow=horizontal;entryX=0.05;entryY=0.009;entryDx=0;entryDy=0;entryPerimeter=0;" parent="7baba1c4bc27f4b0-6" edge="1">
          <mxGeometry relative="1" as="geometry">
            <mxPoint x="-84.45000000000005" y="365.30952380952374" as="sourcePoint" />
            <mxPoint x="45" y="365" as="targetPoint" />
          </mxGeometry>
        </mxCell>
        <mxCell id="7baba1c4bc27f4b0-7" value="API Server" style="shape=umlLifeline;perimeter=lifelinePerimeter;whiteSpace=wrap;html=1;container=1;collapsible=0;recursiveResize=0;outlineConnect=0;rounded=1;shadow=0;comic=0;labelBackgroundColor=none;strokeWidth=1;fontFamily=Verdana;fontSize=12;align=center;" parent="1" vertex="1">
          <mxGeometry x="850" y="154" width="100" height="580" as="geometry" />
        </mxCell>
        <mxCell id="LFfvi1dinfQVA_8fY7Rs-24" value="" style="html=1;points=[];perimeter=orthogonalPerimeter;rounded=0;shadow=0;comic=0;labelBackgroundColor=none;strokeWidth=1;fontFamily=Verdana;fontSize=12;align=center;" parent="7baba1c4bc27f4b0-7" vertex="1">
          <mxGeometry x="45" y="473" width="10" height="25" as="geometry" />
        </mxCell>
        <mxCell id="7baba1c4bc27f4b0-8" value="kubectl" style="shape=umlLifeline;perimeter=lifelinePerimeter;whiteSpace=wrap;html=1;container=1;collapsible=0;recursiveResize=0;outlineConnect=0;rounded=1;shadow=0;comic=0;labelBackgroundColor=none;strokeWidth=1;fontFamily=Verdana;fontSize=12;align=center;" parent="1" vertex="1">
          <mxGeometry x="11" y="154" width="100" height="580" as="geometry" />
        </mxCell>
        <mxCell id="7baba1c4bc27f4b0-9" value="" style="html=1;points=[];perimeter=orthogonalPerimeter;rounded=0;shadow=0;comic=0;labelBackgroundColor=none;strokeWidth=1;fontFamily=Verdana;fontSize=12;align=center;" parent="7baba1c4bc27f4b0-8" vertex="1">
          <mxGeometry x="45" y="100" width="10" height="430" as="geometry" />
        </mxCell>
        <mxCell id="7baba1c4bc27f4b0-16" value="" style="html=1;points=[];perimeter=orthogonalPerimeter;rounded=0;shadow=0;comic=0;labelBackgroundColor=none;strokeWidth=1;fontFamily=Verdana;fontSize=12;align=center;" parent="1" vertex="1">
          <mxGeometry x="475" y="270" width="10" height="130" as="geometry" />
        </mxCell>
        <mxCell id="7baba1c4bc27f4b0-11" value="apply" style="html=1;verticalAlign=bottom;endArrow=block;entryX=0;entryY=0;labelBackgroundColor=none;fontFamily=Verdana;fontSize=12;edgeStyle=elbowEdgeStyle;elbow=vertical;" parent="1" source="7baba1c4bc27f4b0-9" target="7baba1c4bc27f4b0-10" edge="1">
          <mxGeometry relative="1" as="geometry">
            <mxPoint x="131" y="264" as="sourcePoint" />
          </mxGeometry>
        </mxCell>
        <mxCell id="7baba1c4bc27f4b0-14" value="/mutate" style="html=1;verticalAlign=bottom;endArrow=block;entryX=-0.01;entryY=0.004;labelBackgroundColor=none;fontFamily=Verdana;fontSize=12;edgeStyle=elbowEdgeStyle;elbow=vertical;entryDx=0;entryDy=0;entryPerimeter=0;" parent="1" edge="1">
          <mxGeometry relative="1" as="geometry">
            <mxPoint x="206" y="269.80952380952374" as="sourcePoint" />
            <mxPoint x="474.9000000000001" y="269.8159999999999" as="targetPoint" />
          </mxGeometry>
        </mxCell>
        <mxCell id="7baba1c4bc27f4b0-40" value="kubectl provides the PodSpec to optimize" style="shape=note;whiteSpace=wrap;html=1;size=14;verticalAlign=top;align=left;spacingTop=-6;rounded=0;shadow=0;comic=0;labelBackgroundColor=none;strokeWidth=1;fontFamily=Verdana;fontSize=12" parent="1" vertex="1">
          <mxGeometry x="11" y="40" width="100" height="99" as="geometry" />
        </mxCell>
        <mxCell id="7baba1c4bc27f4b0-41" value="mutating web hook scans for emma-optimize label on PodSpec and patch if needed" style="shape=note;whiteSpace=wrap;html=1;size=14;verticalAlign=top;align=left;spacingTop=-6;rounded=0;shadow=0;comic=0;labelBackgroundColor=none;strokeWidth=1;fontFamily=Verdana;fontSize=12" parent="1" vertex="1">
          <mxGeometry x="151" y="40" width="100" height="99" as="geometry" />
        </mxCell>
        <mxCell id="7baba1c4bc27f4b0-42" value="validating web hook ensures that PodSpec mutation is intact" style="shape=note;whiteSpace=wrap;html=1;size=14;verticalAlign=top;align=left;spacingTop=-6;rounded=0;shadow=0;comic=0;labelBackgroundColor=none;strokeWidth=1;fontFamily=Verdana;fontSize=12" parent="1" vertex="1">
          <mxGeometry x="290" y="40" width="100" height="99" as="geometry" />
        </mxCell>
        <mxCell id="7baba1c4bc27f4b0-43" value="operator web hook server mediates between web hooks / emma API" style="shape=note;whiteSpace=wrap;html=1;size=14;verticalAlign=top;align=left;spacingTop=-6;rounded=0;shadow=0;comic=0;labelBackgroundColor=none;strokeWidth=1;fontFamily=Verdana;fontSize=12" parent="1" vertex="1">
          <mxGeometry x="430" y="40" width="100" height="99" as="geometry" />
        </mxCell>
        <mxCell id="7baba1c4bc27f4b0-44" value="operator service caches external emma API data an evaluates PodSpecs" style="shape=note;whiteSpace=wrap;html=1;size=14;verticalAlign=top;align=left;spacingTop=-6;rounded=0;shadow=0;comic=0;labelBackgroundColor=none;strokeWidth=1;fontFamily=Verdana;fontSize=12" parent="1" vertex="1">
          <mxGeometry x="570" y="40" width="100" height="99" as="geometry" />
        </mxCell>
        <mxCell id="7baba1c4bc27f4b0-45" value="operator&amp;nbsp;service monitors workloads to gather metrics on resource usage" style="shape=note;whiteSpace=wrap;html=1;size=14;verticalAlign=top;align=left;spacingTop=-6;rounded=0;shadow=0;comic=0;labelBackgroundColor=none;strokeWidth=1;fontFamily=Verdana;fontSize=12" parent="1" vertex="1">
          <mxGeometry x="710" y="40" width="100" height="99" as="geometry" />
        </mxCell>
        <mxCell id="7baba1c4bc27f4b0-46" value="k8s API server handles PodSpec" style="shape=note;whiteSpace=wrap;html=1;size=14;verticalAlign=top;align=left;spacingTop=-6;rounded=0;shadow=0;comic=0;labelBackgroundColor=none;strokeWidth=1;fontFamily=Verdana;fontSize=12" parent="1" vertex="1">
          <mxGeometry x="850" y="40" width="100" height="99" as="geometry" />
        </mxCell>
        <mxCell id="LFfvi1dinfQVA_8fY7Rs-1" value="emma API" style="shape=umlLifeline;perimeter=lifelinePerimeter;whiteSpace=wrap;html=1;container=1;collapsible=0;recursiveResize=0;outlineConnect=0;rounded=1;shadow=0;comic=0;labelBackgroundColor=none;strokeWidth=1;fontFamily=Verdana;fontSize=12;align=center;" parent="1" vertex="1">
          <mxGeometry x="990" y="154" width="100" height="580" as="geometry" />
        </mxCell>
        <mxCell id="LFfvi1dinfQVA_8fY7Rs-9" value="return" style="html=1;verticalAlign=bottom;endArrow=open;dashed=1;endSize=8;curved=0;rounded=0;" parent="LFfvi1dinfQVA_8fY7Rs-1" edge="1">
          <mxGeometry relative="1" as="geometry">
            <mxPoint x="46" y="106" as="sourcePoint" />
            <mxPoint x="-363.97619047619037" y="106" as="targetPoint" />
          </mxGeometry>
        </mxCell>
        <mxCell id="LFfvi1dinfQVA_8fY7Rs-7" value="" style="html=1;points=[];perimeter=orthogonalPerimeter;rounded=0;shadow=0;comic=0;labelBackgroundColor=none;strokeWidth=1;fontFamily=Verdana;fontSize=12;align=center;" parent="LFfvi1dinfQVA_8fY7Rs-1" vertex="1">
          <mxGeometry x="45" y="86" width="10" height="24" as="geometry" />
        </mxCell>
        <mxCell id="LFfvi1dinfQVA_8fY7Rs-26" value="" style="html=1;points=[];perimeter=orthogonalPerimeter;rounded=0;shadow=0;comic=0;labelBackgroundColor=none;strokeWidth=1;fontFamily=Verdana;fontSize=12;align=center;" parent="LFfvi1dinfQVA_8fY7Rs-1" vertex="1">
          <mxGeometry x="45" y="385" width="10" height="23" as="geometry" />
        </mxCell>
        <mxCell id="LFfvi1dinfQVA_8fY7Rs-27" value="return" style="html=1;verticalAlign=bottom;endArrow=open;dashed=1;endSize=8;curved=0;rounded=0;" parent="LFfvi1dinfQVA_8fY7Rs-1" edge="1">
          <mxGeometry relative="1" as="geometry">
            <mxPoint x="50" y="406" as="sourcePoint" />
            <mxPoint x="-226.33333333333303" y="406" as="targetPoint" />
          </mxGeometry>
        </mxCell>
        <mxCell id="LFfvi1dinfQVA_8fY7Rs-3" value="external emma API provides meta data for web hook server and operator" style="shape=note;whiteSpace=wrap;html=1;size=14;verticalAlign=top;align=left;spacingTop=-6;rounded=0;shadow=0;comic=0;labelBackgroundColor=none;strokeWidth=1;fontFamily=Verdana;fontSize=12" parent="1" vertex="1">
          <mxGeometry x="990" y="40" width="100" height="99" as="geometry" />
        </mxCell>
        <mxCell id="LFfvi1dinfQVA_8fY7Rs-4" value="return" style="html=1;verticalAlign=bottom;endArrow=open;dashed=1;endSize=8;curved=0;rounded=0;exitX=0.086;exitY=0.095;exitDx=0;exitDy=0;exitPerimeter=0;" parent="1" edge="1">
          <mxGeometry relative="1" as="geometry">
            <mxPoint x="475.8599999999999" y="389.38" as="sourcePoint" />
            <mxPoint x="206.02380952380963" y="390" as="targetPoint" />
          </mxGeometry>
        </mxCell>
        <mxCell id="LFfvi1dinfQVA_8fY7Rs-10" value="return" style="html=1;verticalAlign=bottom;endArrow=open;dashed=1;endSize=8;curved=0;rounded=0;" parent="1" edge="1">
          <mxGeometry relative="1" as="geometry">
            <mxPoint x="613" y="370" as="sourcePoint" />
            <mxPoint x="485.92857142857133" y="370.28" as="targetPoint" />
          </mxGeometry>
        </mxCell>
        <mxCell id="LFfvi1dinfQVA_8fY7Rs-15" value="/validate" style="html=1;verticalAlign=bottom;endArrow=block;labelBackgroundColor=none;fontFamily=Verdana;fontSize=12;edgeStyle=elbowEdgeStyle;elbow=vertical;entryX=0.05;entryY=0.009;entryDx=0;entryDy=0;entryPerimeter=0;" parent="1" target="LFfvi1dinfQVA_8fY7Rs-14" edge="1">
          <mxGeometry relative="1" as="geometry">
            <mxPoint x="346.55" y="426.30952380952374" as="sourcePoint" />
            <mxPoint x="472" y="426" as="targetPoint" />
          </mxGeometry>
        </mxCell>
        <mxCell id="LFfvi1dinfQVA_8fY7Rs-21" value="return" style="html=1;verticalAlign=bottom;endArrow=open;dashed=1;endSize=8;curved=0;rounded=0;" parent="1" edge="1">
          <mxGeometry relative="1" as="geometry">
            <mxPoint x="753.0699999999999" y="570" as="sourcePoint" />
            <mxPoint x="625.9985714285713" y="570.28" as="targetPoint" />
          </mxGeometry>
        </mxCell>
        <mxCell id="LFfvi1dinfQVA_8fY7Rs-25" value="/suggestComputeConfig" style="html=1;verticalAlign=bottom;endArrow=block;curved=0;rounded=0;exitX=0.895;exitY=0.031;exitDx=0;exitDy=0;exitPerimeter=0;" parent="1" edge="1">
          <mxGeometry width="80" relative="1" as="geometry">
            <mxPoint x="765" y="541.586" as="sourcePoint" />
            <mxPoint x="1036.5000000000005" y="541.586" as="targetPoint" />
          </mxGeometry>
        </mxCell>
      </root>
    </mxGraphModel>
  </diagram>
</mxfile>
